<svg width="24" height="24" viewBox="0 0 24 24" fill="none" xmlns="http://www.w3.org/2000/svg">
<path fill-rule="evenodd" clip-rule="evenodd" d="M7.1447 4.48188C6.85855 4.95425 7.00951 5.56915 7.48189 5.8553L14.0699 9.84615L7.48189 13.837C7.00951 14.1231 6.85855 14.738 7.1447 15.2104C7.43085 15.6828 8.04575 15.8338 8.51812 15.5476L16.5181 10.7015C16.8173 10.5202 17 10.1959 17 9.84615C17 9.49639 16.8173 9.17206 16.5181 8.99084L8.51812 4.14469C8.04575 3.85854 7.43085 4.0095 7.1447 4.48188ZM16.8553 13.6357C16.5692 13.1633 15.9543 13.0124 15.4819 13.2985L7.48189 18.1447C7.00951 18.4308 6.85855 19.0457 7.1447 19.5181C7.43085 19.9905 8.04575 20.1415 8.51812 19.8553L16.5181 15.0091C16.9905 14.723 17.1415 14.1081 16.8553 13.6357Z" fill="black"/>
</svg>
