<svg width="24" height="24" viewBox="0 0 24 24" fill="none" xmlns="http://www.w3.org/2000/svg">
<path fill-rule="evenodd" clip-rule="evenodd" d="M16.8553 4.48188C17.1415 4.95425 16.9905 5.56915 16.5181 5.8553L9.93008 9.84615L16.5181 13.837C16.9905 14.1231 17.1415 14.738 16.8553 15.2104C16.5692 15.6828 15.9543 15.8338 15.4819 15.5476L7.48191 10.7015C7.18276 10.5202 7.00003 10.1959 7.00003 9.84615C7.00003 9.49639 7.18276 9.17206 7.48191 8.99084L15.4819 4.14469C15.9543 3.85854 16.5692 4.0095 16.8553 4.48188ZM7.14472 13.6357C7.43087 13.1633 8.04577 13.0124 8.51814 13.2985L16.5181 18.1447C16.9905 18.4308 17.1415 19.0457 16.8553 19.5181C16.5692 19.9905 15.9543 20.1415 15.4819 19.8553L7.48191 15.0091C7.00953 14.723 6.85857 14.1081 7.14472 13.6357Z" fill="black"/>
</svg>
